<?xml version="1.0" encoding="utf-8"?>
<!-- Generator: Adobe Illustrator 25.0.0, SVG Export Plug-In . SVG Version: 6.00 Build 0)  -->
<svg version="1.1" xmlns="http://www.w3.org/2000/svg" xmlns:xlink="http://www.w3.org/1999/xlink" x="0px" y="0px"
	 viewBox="0 0 429.27 469.43" style="enable-background:new 0 0 429.27 469.43;" xml:space="preserve">
<style type="text/css">
	.st0{fill:#CBE7F3;}
	.st1{fill:#FFFEF9;}
	.st2{fill:#221F20;}
	.st3{fill:#347F48;}
	.st4{fill:none;stroke:#8A5D1E;stroke-width:4;stroke-miterlimit:10;}
	.st5{fill:none;stroke:#4B310B;stroke-width:5;stroke-miterlimit:10;}
	.st6{fill:none;stroke:#6A450C;stroke-width:5;stroke-miterlimit:10;}
	.st7{fill:none;stroke:#8A5D1E;stroke-width:5;stroke-miterlimit:10;}
	.st8{fill:#347F48;stroke:#1E3F2F;stroke-width:5;stroke-miterlimit:10;}
	.st9{fill:#347F48;stroke:#1F392C;stroke-width:5;stroke-miterlimit:10;}
	.st10{fill:#347F48;stroke:#1E3D2E;stroke-width:5;stroke-miterlimit:10;}
	.st11{fill:#347F48;stroke:#1D4130;stroke-width:5;stroke-miterlimit:10;}
	.st12{fill:none;stroke:#003C1D;stroke-width:5;stroke-miterlimit:10;}
	.st13{fill:#281349;stroke:#3A1741;stroke-miterlimit:10;}
	.st14{fill:url(#SVGID_1_);stroke:#3A1741;stroke-miterlimit:10;}
	.st15{fill:none;stroke:#3A1741;stroke-miterlimit:10;}
	.st16{fill:#DB73A6;stroke:#3A1741;stroke-miterlimit:10;}
	.st17{fill:none;stroke:#221F20;stroke-miterlimit:10;}
	.st18{opacity:0.19;fill:#5EBDCF;stroke:#0B1520;stroke-width:4;stroke-miterlimit:10;}
	.st19{fill:#D4E8D8;stroke:#221F20;stroke-width:3;stroke-miterlimit:10;}
	.st20{opacity:0.32;fill:#5EBDCF;}
	.st21{opacity:0.42;fill:#E0F1FB;}
	.st22{fill:#FFFFFF;stroke:#221F20;stroke-width:6;stroke-miterlimit:10;}
	.st23{fill:#F8FCFE;}
	.st24{fill:#A9753E;stroke:#472F31;stroke-width:4;stroke-miterlimit:10;}
	.st25{fill:#8A6030;stroke:#472F31;stroke-miterlimit:10;}
</style>
<g id="Layer_1">
	<ellipse class="st0" cx="216.44" cy="200.67" rx="205.53" ry="194.87"/>
	<path class="st1" d="M83.23,271.03c35.5-1.94,60.56,5.67,77.95,14.33c12.45,6.2,13.04,9,22.09,11.45
		c33.47,9.09,53.82-21.37,83.45-18.82c26.8,2.3,24.53,39.23,53.18,43.36c15.78,2.28,26.46-6.09,38.45,1.64
		c8.4,5.41,13.92,16.44,13.17,23.1c-4.57,40.35-257.64,85.5-298.71,7.17C65.64,339.59,61.21,315.04,83.23,271.03z"/>
	<path class="st2" d="M146.86,309.5c1.3,6.55,27.24,10.49,128.45,1.23c-24.52-40.8-35.08-75.22-32.32-88.36
		c2.19-10.42,6.95-16.77,6.95-16.77c5.86-7.8,11.78-8.75,11.45-11.05c-1.08-7.64-67.64-4.19-67.91,1.23
		c-0.07,1.35,4.04,2.4,5.32,6.95c0.67,2.38,0.2,4.43,0,5.32c-7.22,31.88-5.46,53.54-22.91,75.68
		C160.97,302.68,145.85,304.37,146.86,309.5z"/>
	<path class="st3" d="M329.45,182c-3.35,14.36-16.88,27.96-25.64,25.64c-7.16-1.9-10.85-9.63-18.82-13.23
		c-11-4.98-18.78,7.12-40.97,7.5c-1.57,0.03-5.17,1.38-20.12-1.91c-14.58-3.21-21.05,6.37-27.55,4.36
		c-4.31-1.33-10.37-9.03-15.26-9.96c-2.1-0.4-5.22-3.79-13.65-3.64c-2.63,0.05-7.69,0.48-12.82,1.33c-5.42,0.9-8.3,3.28-10.81,4.93
		c-1.41,0.93-1.51,1.8-4.3,3.25c-0.88,0.46-0.69,2.05-3.15,3.01c-5.24,2.05-10.04-2.05-10.65-2.19c-3.4-0.77-4.39-7.77-5.73-15.82
		c-3.83-22.99-5.34-20.87-4.64-24.55c2.38-12.36,13.32-17.81,16.36-26.73c0.32-0.94,1.16-3.68,3.55-4.91
		c1.75-0.9,2.8-0.21,4.36-0.82c3.05-1.19,3.62-5.64,4.64-9c0.89-2.94,1.7-3.62,8.57-13.16c14.34-19.9,12.53-19.21,14.34-20.39
		c11.47-7.47,23.08,4.76,42.27,0c10.2-2.53,8.37-7.2,19.91-11.18c3.63-1.25,24.05-8.29,37.36,1.36c7.07,5.13,6.42,10.82,18.82,21.27
		c3.42,2.88,6.23,4.78,8.45,6.27c16.31,10.94,24.01,9.98,28.09,15.82c6.12,8.76-8.07,18.54-2.73,29.18c2.49,4.97,3.73,5.78,7.64,12
		C332.46,169.14,330,179.65,329.45,182z"/>
	<path class="st4" d="M130.91,242.82c-24.14,6.16-37.64,26.35-34.36,42.55c2.82,13.94,17.54,22.24,28.64,24.55
		c24.42,5.08,44.68-19.11,50.73-26.18c25.64-30,21.83-68.88,20.45-79.36c-0.9-0.89-19.22-18.49-41.73-12.27
		c-11.72,3.23-18.64,11.28-21.27,14.73"/>
	<path class="st5" d="M165.68,234.23c7.24-1.27,17.11-1.71,24.14,4.09c2.69,2.22,2.53,3.35,5.09,6.03
		c8.42,8.81,23.28,10.42,33.77,8.7c8.86-1.45,19.16-6.02,24.95-8.59c3.16-1.4,6.76-3.14,11.86-3.27c5.89-0.15,10.74,1.91,13.91,3.68
		"/>
	<path class="st6" d="M208.23,297.23c12.59-16.97,14.95-30.43,14.73-39.68c-0.16-6.48-1.57-10.32-2.45-21.27
		c-1.05-13.02-0.34-23.71,0.41-30.68"/>
	<path class="st7" d="M347.32,338.95c-4.57,1.74-21.03,7.37-37.64-0.41c-4.63-2.17-15.02-7.03-17.18-16.77
		c-2.81-12.67,9.89-26.51,22.91-30.27c8.36-2.42,21.43-1.99,24.55,4.91c2.54,5.63-2.12,14.26-8.18,18.41
		c-7.79,5.34-17.73,3.19-34.36-0.41c-8.83-1.91-13.25-2.87-17.59-4.91c-20.79-9.78-27.98-34.5-30.68-43.77
		c-2.24-7.7-13.17-45.24,6.14-63c1.52-1.4,10.3-9.48,22.5-8.18c13.4,1.43,20.69,13.08,21.68,14.73"/>
	<path class="st8" d="M123.55,187.18c-2.93-5.16-6.5-13.41-6.55-23.73c-0.02-5.08-0.05-10.75,3.68-16.36
		c4.58-6.9,11.8-9.16,14.32-9.82"/>
	<path class="st9" d="M145.64,120.09c1.49-2.88,3.77-7.28,6.55-12.68c4.84-9.41,4.83-9.5,5.32-10.23
		c6.97-10.51,20.78-13.04,23.32-13.5c13.36-2.44,23.81,2.75,27,4.5"/>
	<path class="st10" d="M218.05,83.27c5.04-4.01,17.92-13.04,33.14-11.05c1.27,0.17,3.77,0.57,6.95,1.64
		c13.42,4.5,20.9,14.8,24.14,20.05"/>
	<path class="st11" d="M287.59,105.77c14.74-1.44,27.74,3.86,32.32,13.09c2.54,5.11,2.46,11.37,2.45,11.86
		c-0.15,7.54-3.41,12.94-4.91,15.14"/>
	<path class="st8" d="M316.23,186.36c0.79-0.52,11.32-7.74,11.05-18.82c-0.13-5.23-2.62-9.43-2.86-9.82
		c-2.19-3.6-5.02-5.61-6.55-6.55"/>
	<path class="st12" d="M257.07,111.61c0.98-0.4,15.72-6.18,24.55,1.23c2.48,2.09,3.99,4.79,4.5,5.73c3.63,6.65,2.9,13.28,2.45,15.95
		"/>
	<path class="st13" d="M229.16,287.88l-12.39,5.78c-4.62,2.15-6.61,7.64-4.46,12.26l10.7,22.95c2.15,4.62,7.64,6.61,12.26,4.46
		l12.39-5.78c4.62-2.15,6.61-7.64,4.46-12.26l-10.7-22.95C239.27,287.72,233.78,285.73,229.16,287.88z"/>
	<linearGradient id="SVGID_1_" gradientUnits="userSpaceOnUse" x1="216.0278" y1="310.2651" x2="248.6198" y2="310.2651">
		<stop  offset="0" style="stop-color:#79598F"/>
		<stop  offset="0.2142" style="stop-color:#7B5C91"/>
		<stop  offset="0.3541" style="stop-color:#826497"/>
		<stop  offset="0.4723" style="stop-color:#8D73A1"/>
		<stop  offset="0.5" style="stop-color:#9178A4"/>
		<stop  offset="0.5234" style="stop-color:#886D9C"/>
		<stop  offset="0.5959" style="stop-color:#6F5187"/>
		<stop  offset="0.6741" style="stop-color:#5C3B76"/>
		<stop  offset="0.7598" style="stop-color:#4E2C6A"/>
		<stop  offset="0.8585" style="stop-color:#462363"/>
		<stop  offset="1" style="stop-color:#442061"/>
	</linearGradient>
	<path class="st14" d="M246.69,322.05l-14.57,6.8c-1.67,0.78-3.66,0.06-4.43-1.61l-11.34-24.32c-0.78-1.67-0.06-3.66,1.61-4.43
		l14.57-6.8c1.67-0.78,3.66-0.06,4.43,1.61l11.34,24.32C249.09,319.29,248.36,321.27,246.69,322.05z"/>
	<line class="st15" x1="228.95" y1="333.86" x2="229.74" y2="329.01"/>
	<line class="st15" x1="252.71" y1="321.41" x2="248.6" y2="319.38"/>
	<line class="st16" x1="234.96" y1="291.53" x2="234.96" y2="287.22"/>
	<line class="st15" x1="216.12" y1="300.76" x2="212.03" y2="298.81"/>
	<path class="st17" d="M228.95,293.35"/>
	<path class="st2" d="M183.58,234.87"/>
	<path class="st18" d="M60.55,349.18c-1.79-2.19-4.35-5.41-7.27-9.39c-7.26-9.9-23.18-33.24-33.69-65.29
		c-5.88-17.92-17.73-55.55-8.95-102.87c1.52-8.21,7.37-36.34,26.59-67.5C69.19,52.32,115,29.91,129.27,23.55
		c72.97-32.57,139.54-11.2,151.64-7.09c14.17,4.81,74.46,27.01,112.36,91.64c6.71,11.45,43.77,77.16,21.82,157.64
		c-11.15,40.86-32.92,68.69-45.82,82.91c-66.08,6.4-117.33,7.99-152.73,8.18c-8.08,0.04-14.93,0.01-16.91,0
		c-56.31-0.3-100.81-3.31-130.91-6"/>
	<path class="st19" d="M429.27,387.91"/>
	<path class="st20" d="M66,348.64c7.63-4.08-55.52-87.22-34.91-172.91c9.15-38.05,31.77-63.9,41.45-74.73
		c13.77-15.4,47.82-48.44,102.55-60c73.78-15.59,131.16,19.27,145.09,28.36c43.83,28.59,63.27,66.69,68.18,76.91
		c26.82,55.85,17.05,107.14,14.18,121.09c-10.59,51.47-39.21,81.77-39.12,81.83c0.14,0.08,62.27-64.91,58.75-150.01
		c-1.55-37.55-15.3-65.07-22.14-78.4c-9.57-18.66-48.07-86.71-131.68-109.23C173.87-13.9,99.73,39.45,90.12,46.62
		C74.05,58.62,24.39,99.33,10.64,171.64c-13.66,71.82,17.22,126.85,25.54,141.15C47.15,331.64,62.33,350.6,66,348.64z"/>
	
		<ellipse transform="matrix(0.6135 -0.7897 0.7897 0.6135 -47.4715 106.1406)" class="st21" cx="84.69" cy="101.57" rx="52.43" ry="33.23"/>
	<path class="st22" d="M232.22,315.92"/>
	<g id="Layer_2">
		<path class="st23" d="M27.05,294.11c1.58-16.3,14.33-29.29,30.22-31.11c16.68-1.9,32.67,8.99,37.09,25.64
			c1.02,2.52,6.42,15.1,20.73,21.27c15.57,6.71,29.56,0.6,31.77-0.41c10.96,4.44,20.16,5.97,26.57,6.53
			c5.02,0.44,10.51,0.31,21.3,0.01c9.08-0.25,16.61-0.6,21.9-0.89c2.13,4.57,4.26,9.14,6.39,13.71c0.34,0.53,3.24,4.81,8.82,5.31
			c1.22,0.11,2.54-0.09,9.72-3.78c8.98-4.62,9.8-5.84,10.24-6.7c1.97-3.87,0.3-8.48-0.84-10.87c8.12-0.7,16.23-1.39,24.35-2.09
			c4.41,1.36,8.82,2.73,13.23,4.09c0.72,2.98,4.32,16.54,17.45,24.55c12.28,7.48,28.17,7.26,41.32-0.41
			c10.65,1.59,24.23,4.12,24.21,7.15c-0.02,3.75-20.85,6.46-28.44,7.44c-21.22,2.75-80.44,5.8-277.09-4.91
			c-9.84-7.75-21.41-19.32-29.82-35.85c-1.54-3.02-2.86-5.99-4-8.88"/>
	</g>
	<circle class="st1" cx="353.59" cy="175.04" r="6.27"/>
	<circle class="st1" cx="355.02" cy="130.54" r="4.84"/>
	<circle class="st1" cx="292.31" cy="236.79" r="3.36"/>
	<circle class="st1" cx="160.97" cy="199.52" r="1.15"/>
	<ellipse class="st1" cx="136.36" cy="108.45" rx="1.36" ry="2.91"/>
	<circle class="st1" cx="69.32" cy="239.15" r="2.36"/>
	<circle class="st1" cx="55.94" cy="186.26" r="2.35"/>
	<circle class="st1" cx="93.89" cy="160.39" r="1.84"/>
	<ellipse class="st1" cx="98.98" cy="74.04" rx="0.39" ry="2.1"/>
	<circle class="st1" cx="142.52" cy="68.7" r="2.2"/>
	<circle class="st1" cx="85.94" cy="104.05" r="2.48"/>
	<circle class="st1" cx="68.14" cy="152.36" r="1.18"/>
	<circle class="st1" cx="154.32" cy="237.01" r="2.14"/>
	<circle class="st1" cx="151.16" cy="263.81" r="1.02"/>
	<circle class="st1" cx="129.6" cy="265.97" r="1.14"/>
	<circle class="st1" cx="138.96" cy="251.92" r="1.23"/>
	<ellipse class="st1" cx="113.32" cy="223.8" rx="2.86" ry="1.43"/>
	<circle class="st1" cx="328.88" cy="248.06" r="1.6"/>
	<circle class="st1" cx="355.84" cy="221.55" r="0.82"/>
	<circle class="st1" cx="328.08" cy="98.39" r="0.8"/>
	<ellipse class="st1" cx="183.89" cy="64.33" rx="3.07" ry="4.37"/>
	<ellipse class="st1" cx="85.09" cy="206" rx="4.09" ry="5.32"/>
	<circle class="st1" cx="40.09" cy="236.29" r="2.86"/>
	<circle class="st1" cx="309.58" cy="275.44" r="2.76"/>
	<ellipse class="st1" cx="377.39" cy="294.09" rx="2.66" ry="4.72"/>
	<circle class="st1" cx="392.18" cy="244.1" r="3.95"/>
	<circle class="st1" cx="360.47" cy="251.3" r="0.62"/>
	<circle class="st1" cx="349.47" cy="289.38" r="2.16"/>
</g>
<g id="Layer_3">
	<polygon class="st24" points="44.36,432.09 44.36,405.36 53.78,379.18 375.06,379.73 383.79,402.64 383.79,434.79 222.97,459.91 
		59.45,449 	"/>
	<path class="st25" d="M55.42,347c39.28,4.21,110.77,10.75,178.37,9.64c20.72-0.34,43.63-1.35,43.63-1.35
		c39.8-1.76,73.15-4.66,97.63-7.19c0.44,0.28,9.03,5.98,8.73,16.36c-0.28,9.7-8.07,14.85-8.73,15.27
		c-46.87,5.87-99.16,9.47-156,8.73c-25.25-0.33-49.46-1.49-72.55-3.27c-19.18-1.48-38.93-0.7-58.15-2.18
		c-11.62-0.9-21.27,0-34.58-3.82c-0.8-0.23-3.7,0.54-6-1.09c-4.68-3.33-3.89-13.01-1.64-19.09C48.36,353.03,52.47,349.18,55.42,347z
		"/>
	<path class="st25" d="M39.94,434.79c43.49,3.52,122.64,8.99,197.49,8.05c22.94-0.29,48.31-1.13,48.31-1.13
		c44.06-1.47,80.99-3.89,108.1-6.01c0.48,0.23,10,5,9.66,13.67c-0.31,8.1-8.93,12.41-9.66,12.76c-51.9,4.9-109.79,7.91-172.72,7.29
		c-27.96-0.27-54.76-1.24-80.32-2.73c-21.24-1.24-43.1-0.58-64.38-1.82c-12.86-0.75-23.55,0-38.29-3.19
		c-0.88-0.19-4.1,0.45-6.64-0.91c-5.18-2.78-4.3-10.87-1.81-15.95C32.12,439.83,36.67,436.61,39.94,434.79z"/>
</g>
</svg>
